<svg width="84" height="84" viewBox="0 0 84 84" fill="none" xmlns="http://www.w3.org/2000/svg">
<path d="M33.6827 75.1186C49.431 75.1186 62.1975 62.3521 62.1975 46.6038C62.1975 30.8555 49.431 18.089 33.6827 18.089C17.9345 18.089 5.16797 30.8555 5.16797 46.6038C5.16797 62.3521 17.9345 75.1186 33.6827 75.1186Z" fill="#DDDDDD"/>
<path d="M34.0076 68.6436L33.6459 68.0274C28.1213 58.6145 13.4404 38.639 13.2921 38.4384L13.0803 38.1507L18.082 33.2076L33.9147 44.2631C43.8834 31.3273 53.1835 22.4423 59.25 17.2539C65.8861 11.5782 70.2058 8.96534 70.2494 8.9403L70.3476 8.8815H78.832L78.0215 9.60325C57.1784 28.1682 34.5866 67.6263 34.3616 68.0227L34.0076 68.6436Z" fill="#F98315"/>
</svg>
