<svg width="50" height="45" viewBox="0 0 50 45" fill="none" xmlns="http://www.w3.org/2000/svg">
<path d="M20.087 8.90107C21.3374 8.36792 21.8617 6.85049 21.2971 5.62015L19.3206 1.39596C18.7559 0.207035 17.3845 -0.326525 16.1745 0.207035C12.746 1.68345 9.80148 3.61099 7.46203 5.94865C4.59823 8.69601 2.66213 11.8539 1.61341 15.3399C0.564695 18.8673 0 23.6652 0 29.7759L0 42.3665C0 43.7199 1.08905 44.8272 2.42012 44.8272H18.2719C19.603 44.8272 20.692 43.7199 20.692 42.3665V26.2489C20.692 24.8952 19.603 23.7883 18.2719 23.7883L10.6889 23.7883C10.7695 19.6457 11.7376 16.3242 13.5123 13.822C14.9644 11.8133 17.1425 10.1728 20.087 8.90107Z" fill="#F98315"/>
<path d="M48.5637 8.90107C49.8141 8.36792 50.3381 6.8505 49.7738 5.62015L47.7974 1.43739C47.2327 0.248053 45.8613 -0.285097 44.6512 0.248053C41.263 1.72447 38.3585 3.65201 35.9791 5.94865C33.1149 8.73744 31.1389 11.8953 30.0898 15.3813C29.041 18.8259 28.5171 23.6246 28.5171 29.7764V42.3669C28.5171 43.7203 29.6061 44.8276 30.9372 44.8276H46.789C48.12 44.8276 49.2091 43.7203 49.2091 42.3669L49.2091 26.2494C49.2091 24.8956 48.12 23.7887 46.789 23.7887L39.1656 23.7887C39.2463 19.6461 40.2147 16.3246 41.9891 13.8225C43.4411 11.8133 45.6193 10.1728 48.5637 8.90107Z" fill="#F98315"/>
</svg>
