<svg width="31" height="35" viewBox="0 0 31 35" fill="none" xmlns="http://www.w3.org/2000/svg">
<g clip-path="url(#clip0_1550_187)">
<path d="M8.62971 6.90137H21.8941C23.6526 6.90137 25.339 7.5999 26.5824 8.84331C27.8258 10.0867 28.5243 11.7731 28.5243 13.5316V26.796C28.5233 28.5537 27.8243 30.2391 26.581 31.4817C25.3377 32.7242 23.6519 33.4222 21.8941 33.4222H8.62971C6.87197 33.4222 5.18616 32.7242 3.94287 31.4817C2.69958 30.2391 2.00057 28.5537 1.99951 26.796V13.5316C1.99951 11.7731 2.69805 10.0867 3.94145 8.84331C5.18486 7.5999 6.87128 6.90137 8.62971 6.90137Z" stroke="#F98315" stroke-width="2.99919" stroke-linecap="round" stroke-linejoin="round"/>
<path d="M20.5644 19.326C20.7281 20.4297 20.5397 21.5569 20.0258 22.5473C19.512 23.5377 18.6989 24.3409 17.7023 24.8425C16.7056 25.3442 15.5762 25.5188 14.4746 25.3416C13.373 25.1643 12.3553 24.6442 11.5664 23.8553C10.7774 23.0663 10.2573 22.0486 10.0801 20.947C9.90281 19.8454 10.0774 18.716 10.5791 17.7194C11.0808 16.7227 11.8839 15.9097 12.8743 15.3958C13.8647 14.882 14.9919 14.6935 16.0956 14.8572C17.2213 15.0242 18.2635 15.5488 19.0682 16.3535C19.8728 17.1582 20.3974 18.2003 20.5644 19.326Z" stroke="#F98315" stroke-width="2.99919" stroke-linecap="round" stroke-linejoin="round"/>
</g>
<defs>
<clipPath id="clip0_1550_187">
<rect width="29.52" height="29.52" fill="white" transform="translate(0.5 5.40186)"/>
</clipPath>
</defs>
</svg>
