<svg width="25" height="31" viewBox="0 0 25 31" fill="none" xmlns="http://www.w3.org/2000/svg">
<g opacity="0.5">
<path d="M22.1429 12.1786C22.1429 9.53588 21.0931 7.00142 19.2244 5.13276C17.3557 3.26409 14.8213 2.21429 12.1786 2.21429C9.53588 2.21429 7.00142 3.26409 5.13276 5.13276C3.26409 7.00142 2.21429 9.53588 2.21429 12.1786C2.21429 16.2661 5.48479 21.5937 12.1786 27.9753C18.8724 21.5937 22.1429 16.2661 22.1429 12.1786ZM12.1786 31C4.05879 23.6198 0 17.3445 0 12.1786C0 8.94861 1.2831 5.85095 3.56702 3.56702C5.85095 1.2831 8.94861 0 12.1786 0C15.4085 0 18.5062 1.2831 20.7901 3.56702C23.074 5.85095 24.3571 8.94861 24.3571 12.1786C24.3571 17.3445 20.2984 23.6198 12.1786 31Z" fill="white"/>
<path d="M12.1788 15.5C13.0597 15.5 13.9045 15.15 14.5274 14.5271C15.1503 13.9043 15.5002 13.0594 15.5002 12.1785C15.5002 11.2976 15.1503 10.4528 14.5274 9.82993C13.9045 9.20704 13.0597 8.85711 12.1788 8.85711C11.2979 8.85711 10.4531 9.20704 9.83018 9.82993C9.20729 10.4528 8.85735 11.2976 8.85735 12.1785C8.85735 13.0594 9.20729 13.9043 9.83018 14.5271C10.4531 15.15 11.2979 15.5 12.1788 15.5ZM12.1788 17.7143C10.7106 17.7143 9.30259 17.131 8.26444 16.0929C7.22629 15.0547 6.64307 13.6467 6.64307 12.1785C6.64307 10.7104 7.22629 9.30234 8.26444 8.2642C9.30259 7.22605 10.7106 6.64282 12.1788 6.64282C13.6469 6.64282 15.055 7.22605 16.0931 8.2642C17.1313 9.30234 17.7145 10.7104 17.7145 12.1785C17.7145 13.6467 17.1313 15.0547 16.0931 16.0929C15.055 17.131 13.6469 17.7143 12.1788 17.7143Z" fill="white"/>
</g>
</svg>
