<svg width="31" height="31" viewBox="0 0 31 31" fill="none" xmlns="http://www.w3.org/2000/svg">
<g opacity="0.5" clip-path="url(#clip0_1550_47)">
<path d="M24.0663 19.084C23.4521 18.4445 22.7113 18.1026 21.9262 18.1026C21.1474 18.1026 20.4002 18.4382 19.7607 19.0777L17.7599 21.0722C17.5953 20.9835 17.4307 20.9012 17.2724 20.8189C17.0444 20.7049 16.8292 20.5973 16.6455 20.4833C14.7714 19.293 13.0681 17.7417 11.4345 15.7345C10.6431 14.7341 10.1112 13.892 9.72499 13.0372C10.2442 12.5624 10.7254 12.0685 11.1939 11.5936C11.3712 11.4163 11.5485 11.2327 11.7258 11.0554C13.0555 9.72576 13.0555 8.00353 11.7258 6.67388L9.99725 4.94532C9.80097 4.74904 9.59835 4.54642 9.4084 4.34381C9.0285 3.95124 8.6296 3.54601 8.21804 3.16611C7.60387 2.55827 6.86939 2.23535 6.09692 2.23535C5.32445 2.23535 4.57731 2.55827 3.94414 3.16611C3.93781 3.17244 3.93781 3.17244 3.93148 3.17878L1.7787 5.35055C0.968238 6.16101 0.506023 7.14876 0.404716 8.29479C0.252755 10.1437 0.797282 11.8659 1.21517 12.9929C2.24091 15.7599 3.77318 18.3242 6.05893 21.0722C8.83222 24.3837 12.169 26.9986 15.9807 28.8412C17.437 29.5313 19.3808 30.3481 21.5526 30.4874C21.6856 30.4938 21.8249 30.5001 21.9515 30.5001C23.4141 30.5001 24.6425 29.9746 25.6049 28.9298C25.6112 28.9172 25.6239 28.9108 25.6302 28.8982C25.9595 28.4993 26.3394 28.1384 26.7383 27.7521C27.0105 27.4925 27.2891 27.2203 27.5614 26.9353C28.1882 26.2832 28.5175 25.5234 28.5175 24.7446C28.5175 23.9594 28.1819 23.206 27.5424 22.5728L24.0663 19.084ZM26.333 25.7513C26.3267 25.7513 26.3267 25.7576 26.333 25.7513C26.0861 26.0172 25.8328 26.2578 25.5606 26.5238C25.149 26.9163 24.7311 27.3279 24.3386 27.7901C23.6991 28.4739 22.9456 28.7969 21.9578 28.7969C21.8629 28.7969 21.7616 28.7969 21.6666 28.7905C19.7861 28.6702 18.0385 27.9357 16.7279 27.3089C13.1441 25.574 9.99725 23.111 7.38226 19.9895C5.22314 17.3871 3.77952 14.9811 2.82343 12.3977C2.23458 10.8211 2.0193 9.59279 2.11428 8.43409C2.17759 7.69328 2.46252 7.07911 2.98805 6.55358L5.14716 4.39446C5.45742 4.1032 5.78667 3.94491 6.10958 3.94491C6.50848 3.94491 6.8314 4.18552 7.03401 4.38813C7.04034 4.39446 7.04667 4.40079 7.05301 4.40713C7.43924 4.76803 7.80648 5.1416 8.19271 5.5405C8.389 5.74312 8.59161 5.94573 8.79423 6.15468L10.5228 7.88323C11.1939 8.55439 11.1939 9.1749 10.5228 9.84606C10.3392 10.0297 10.1619 10.2133 9.97825 10.3906C9.44639 10.9351 8.93986 11.4417 8.389 11.9355C8.37633 11.9482 8.36367 11.9545 8.35734 11.9672C7.81281 12.5117 7.91412 13.0436 8.02809 13.4045C8.03442 13.4235 8.04075 13.4425 8.04708 13.4615C8.49664 14.5505 9.12981 15.5763 10.0922 16.7983L10.0986 16.8046C11.8461 18.9574 13.6886 20.6353 15.7211 21.9206C15.9807 22.0852 16.2466 22.2182 16.4999 22.3448C16.7279 22.4588 16.9431 22.5665 17.1267 22.6804C17.1521 22.6931 17.1774 22.7121 17.2027 22.7248C17.418 22.8324 17.6206 22.883 17.8296 22.883C18.3551 22.883 18.6843 22.5538 18.792 22.4462L20.9574 20.2807C21.1727 20.0654 21.5146 19.8058 21.9135 19.8058C22.3061 19.8058 22.629 20.0528 22.8253 20.268C22.8316 20.2744 22.8316 20.2744 22.8379 20.2807L26.3267 23.7695C26.9789 24.4153 26.9789 25.0801 26.333 25.7513Z" fill="white"/>
<path d="M16.5705 7.63611C18.2294 7.9147 19.7364 8.69983 20.9394 9.90286C22.1425 11.1059 22.9213 12.6128 23.2062 14.2717C23.2758 14.6896 23.6367 14.9809 24.0483 14.9809C24.099 14.9809 24.1433 14.9746 24.1939 14.9682C24.6625 14.8922 24.9727 14.449 24.8968 13.9805C24.5548 11.9733 23.6051 10.1435 22.1551 8.6935C20.7052 7.24354 18.8753 6.29379 16.8681 5.95187C16.3996 5.87589 15.9627 6.18615 15.8804 6.64836C15.7981 7.11058 16.102 7.56013 16.5705 7.63611Z" fill="white"/>
<path d="M30.3226 13.7336C29.7591 10.4285 28.2015 7.42092 25.8081 5.02754C23.4147 2.63415 20.4071 1.07655 17.102 0.513032C16.6398 0.430719 16.2029 0.747305 16.1206 1.20952C16.0446 1.67807 16.3548 2.11495 16.8234 2.19727C19.774 2.69747 22.4649 4.09678 24.6051 6.23056C26.7452 8.37068 28.1381 11.0617 28.6384 14.0122C28.708 14.4301 29.0689 14.7214 29.4805 14.7214C29.5311 14.7214 29.5754 14.715 29.6261 14.7087C30.0883 14.6391 30.4049 14.1958 30.3226 13.7336Z" fill="white"/>
</g>
<defs>
<clipPath id="clip0_1550_47">
<rect width="30" height="30" fill="white" transform="translate(0.357178 0.5)"/>
</clipPath>
</defs>
</svg>
