<svg width="160" height="23" viewBox="0 0 160 23" fill="none" xmlns="http://www.w3.org/2000/svg">
<path d="M151.671 7.31997L151.788 7.55577L152.048 7.59358L159.16 8.62715C159.16 8.62718 159.16 8.62722 159.16 8.62725C159.382 8.66055 159.528 8.86308 159.495 9.07332L159.495 9.07332L159.495 9.07885C159.482 9.16391 159.442 9.24302 159.379 9.30481C159.379 9.30493 159.379 9.30504 159.379 9.30515L154.233 14.3219L154.045 14.5054L154.09 14.7645L155.306 21.8498L155.306 21.8502C155.343 22.0643 155.199 22.269 154.982 22.3063L154.981 22.3064C154.895 22.3214 154.807 22.3071 154.733 22.268L154.731 22.2668L148.369 18.9217L148.136 18.7994L147.903 18.9217L141.541 22.2668L141.54 22.2672C141.475 22.3017 141.401 22.3172 141.327 22.3119C141.254 22.3067 141.183 22.2809 141.123 22.2375C141.064 22.1941 141.017 22.1349 140.989 22.0665C140.962 21.998 140.954 21.9232 140.966 21.8505L140.966 21.8498L142.182 14.7645L142.227 14.5054L142.038 14.3219L136.892 9.30425L136.892 9.30422C136.816 9.2306 136.773 9.13001 136.772 9.02455C136.77 8.9194 136.811 8.81799 136.884 8.74247C136.946 8.67973 137.025 8.63968 137.109 8.62755L137.111 8.62738L144.224 7.59358L144.484 7.55577L144.6 7.31997L147.779 0.875869C147.779 0.87552 147.779 0.875172 147.78 0.874823C147.879 0.67752 148.118 0.598565 148.312 0.694371L148.313 0.694657C148.391 0.73278 148.453 0.79554 148.491 0.873016L148.492 0.873449L151.671 7.31997Z" stroke="#F5C100"/>
<path d="M117.601 7.31997L117.718 7.55577L117.978 7.59358L125.09 8.62715C125.09 8.62718 125.09 8.62722 125.09 8.62725C125.312 8.66055 125.458 8.86308 125.425 9.07332L125.425 9.07332L125.425 9.07885C125.412 9.16391 125.372 9.24302 125.309 9.30481C125.309 9.30493 125.309 9.30504 125.309 9.30515L120.163 14.3219L119.975 14.5054L120.02 14.7645L121.236 21.8498L121.236 21.8502C121.272 22.0643 121.129 22.269 120.912 22.3063L120.911 22.3064C120.825 22.3214 120.737 22.3071 120.663 22.268L120.661 22.2668L114.299 18.9217L114.066 18.7994L113.833 18.9217L107.471 22.2668L107.47 22.2672C107.405 22.3017 107.331 22.3172 107.257 22.3119C107.184 22.3067 107.113 22.2809 107.053 22.2375C106.994 22.1941 106.947 22.1349 106.919 22.0665C106.892 21.998 106.884 21.9232 106.896 21.8505L106.896 21.8498L108.112 14.7645L108.157 14.5054L107.968 14.3219L102.822 9.30425L102.822 9.30422C102.746 9.2306 102.703 9.13001 102.702 9.02455C102.7 8.9194 102.741 8.81799 102.814 8.74247C102.875 8.67973 102.954 8.63968 103.039 8.62755L103.041 8.62738L110.154 7.59358L110.414 7.55577L110.53 7.31997L113.709 0.875869C113.709 0.87552 113.709 0.875172 113.71 0.874823C113.809 0.67752 114.048 0.598565 114.242 0.694371L114.243 0.694657C114.32 0.73278 114.383 0.79554 114.421 0.873016L114.422 0.873449L117.601 7.31997Z" fill="#F5C100" stroke="#F5C100"/>
<path d="M91.0986 8.13257L83.9853 7.09878L80.8055 0.652262C80.7187 0.475761 80.5758 0.332878 80.3993 0.246028C79.9566 0.0275021 79.4187 0.209607 79.1974 0.652262L76.0175 7.09878L68.9042 8.13257C68.7081 8.16059 68.5288 8.25304 68.3915 8.39312C68.2256 8.56371 68.1341 8.7932 68.1373 9.03117C68.1404 9.26914 68.2379 9.49613 68.4084 9.66226L73.5549 14.6799L72.339 21.7652C72.3105 21.9301 72.3288 22.0996 72.3917 22.2545C72.4546 22.4095 72.5597 22.5438 72.695 22.6421C72.8304 22.7404 72.9905 22.7988 73.1574 22.8107C73.3242 22.8226 73.4911 22.7875 73.639 22.7094L80.0014 19.3642L86.3639 22.7094C86.5376 22.8018 86.7393 22.8326 86.9326 22.799C87.4201 22.715 87.7479 22.2527 87.6639 21.7652L86.448 14.6799L91.5945 9.66226C91.7346 9.52498 91.8271 9.34567 91.8551 9.14956C91.9307 8.65928 91.5889 8.20542 91.0986 8.13257Z" fill="#F5C100"/>
<path d="M57.0286 8.13257L49.9153 7.09878L46.7354 0.652262C46.6486 0.475761 46.5057 0.332878 46.3292 0.246028C45.8865 0.0275021 45.3486 0.209607 45.1273 0.652262L41.9475 7.09878L34.8342 8.13257C34.6381 8.16059 34.4588 8.25304 34.3215 8.39312C34.1555 8.56371 34.0641 8.7932 34.0672 9.03117C34.0704 9.26914 34.1679 9.49613 34.3383 9.66226L39.4849 14.6799L38.269 21.7652C38.2404 21.9301 38.2587 22.0996 38.3216 22.2545C38.3845 22.4095 38.4896 22.5438 38.625 22.6421C38.7603 22.7404 38.9205 22.7988 39.0873 22.8107C39.2542 22.8226 39.421 22.7875 39.5689 22.7094L45.9314 19.3642L52.2938 22.7094C52.4675 22.8018 52.6693 22.8326 52.8626 22.799C53.35 22.715 53.6778 22.2527 53.5938 21.7652L52.3779 14.6799L57.5245 9.66226C57.6645 9.52498 57.757 9.34567 57.785 9.14956C57.8606 8.65928 57.5189 8.20542 57.0286 8.13257Z" fill="#F5C100"/>
<path d="M22.9614 8.16614L15.8481 7.13235L12.6683 0.685832C12.5814 0.50933 12.4386 0.366448 12.2621 0.279597C11.8194 0.0610715 11.2815 0.243176 11.0602 0.685832L7.88034 7.13235L0.767038 8.16614C0.570925 8.19416 0.391622 8.28661 0.254343 8.42669C0.08838 8.59727 -0.00307311 8.82677 7.8854e-05 9.06474C0.00323082 9.30271 0.10073 9.5297 0.271152 9.69583L5.41772 14.7135L4.20182 21.7988C4.17331 21.9636 4.19154 22.1331 4.25447 22.2881C4.31739 22.4431 4.42248 22.5773 4.55782 22.6756C4.69315 22.7739 4.85333 22.8323 5.02017 22.8442C5.18701 22.8561 5.35385 22.821 5.50177 22.7429L11.8642 19.3978L18.2267 22.7429C18.4004 22.8354 18.6021 22.8662 18.7954 22.8326C19.2829 22.7485 19.6107 22.2863 19.5267 21.7988L18.3108 14.7135L23.4573 9.69583C23.5974 9.55855 23.6898 9.37924 23.7179 9.18313C23.7935 8.69285 23.4517 8.23899 22.9614 8.16614Z" fill="#F5C100"/>
</svg>
