<svg width="66" height="66" viewBox="0 0 66 66" fill="none" xmlns="http://www.w3.org/2000/svg">
<g clip-path="url(#clip0_1550_30)">
<path d="M48.4364 32.2329C51.8674 32.6345 54.9739 30.1785 55.3755 26.7471C55.7765 23.3167 53.3208 20.21 49.8895 19.8086C46.4588 19.407 43.3521 21.8631 42.9516 25.2942C42.5492 28.7253 45.0058 31.8316 48.4364 32.2329Z" fill="url(#paint0_linear_1550_30)"/>
<path d="M21.1957 27.1464L30.4993 25.2886L32.4999 28.5061L25.2516 35.3986C26.3708 35.6814 27.4457 36.1024 28.4449 36.6531C28.9241 36.9173 29.3732 37.2224 29.8075 37.5172C30.507 37.9923 31.1652 38.4495 31.8176 38.6286C32.3335 38.7703 33.0095 38.7784 33.0525 38.7809C33.9714 38.7729 34.781 38.5173 35.6073 37.9785C37.7565 36.5772 40.3945 35.1255 43.6662 34.9818C43.9077 34.9712 44.1516 34.9657 44.3915 34.9657C45.441 34.9657 46.4673 35.0689 47.4488 35.2688C46.7755 34.1939 34.7803 19.6581 34.7803 19.6581L34.4641 19.2799C33.6901 18.3599 32.3947 17.975 31.2003 18.4127L19.904 22.556C18.8149 22.9542 18.1482 24.0973 18.3821 25.2696C18.6408 26.5646 19.9006 27.4049 21.1957 27.1464Z" fill="url(#paint1_linear_1550_30)"/>
<path d="M62.3181 41.5982C60.7782 42.2886 59.6304 42.5702 58.3556 42.5702C57.8535 42.5702 57.3341 42.5253 56.7675 42.4324C54.8802 42.0959 53.535 41.0061 52.2339 39.9522C51.4338 39.304 50.678 38.6916 49.8037 38.2408C48.2212 37.4204 46.3182 36.9871 44.2986 36.9871C44.0893 36.9871 43.8761 36.9919 43.6654 37.0013C40.9041 37.1224 38.6651 38.3509 36.6564 39.6604C35.478 40.429 34.0803 40.7979 32.8118 40.7979C32.4293 40.7979 31.6506 40.714 31.1453 40.5682C30.1755 40.2885 29.3441 39.7236 28.5399 39.1777C28.1268 38.8969 27.7367 38.6321 27.3425 38.4148C25.6545 37.4841 23.7053 36.9922 21.7058 36.9922H21.6653C18.8659 37.0014 16.3342 37.86 14.3442 39.4744C11.5731 41.7233 9.74436 42.3552 9.22302 42.4443C9.22302 42.4443 8.78574 42.5586 7.84676 42.5586C6.04799 42.5586 4.54474 41.9694 3.03591 41.3132C1.97594 40.8522 0.977029 40.5877 0 40.5106C0.18944 40.62 0.370794 40.7343 0.546713 40.855C1.31256 41.3889 1.94291 42.0379 2.55221 42.6655C2.8784 43.0012 3.18632 43.3184 3.51349 43.6195C4.7944 44.7979 7.43805 46.1907 10.4808 46.1907C12.0247 46.1907 13.5187 45.855 14.9206 45.1926C15.333 44.9978 15.7346 44.7657 16.1597 44.5202C16.8649 44.1131 17.5974 43.7029 18.4091 43.4295C19.4334 43.0844 21.0233 43.1987 21.0233 43.1987C22.6718 43.3041 23.9063 44.083 24.7976 44.7498C27.5131 46.781 30.075 47.7397 32.8603 47.7667L33.0022 47.7676C34.9187 47.7676 36.672 47.3982 38.2138 46.6698C38.932 46.3302 39.6158 45.8309 40.3399 45.3019C41.6999 44.3084 43.1064 43.2809 44.9177 43.2099C45.0254 43.2055 45.135 43.2033 45.2463 43.2033C46.2381 43.2033 47.7314 43.3756 49.2136 44.1965C50.9977 45.188 53.1562 46.2012 55.6465 46.2012C56.0083 46.2012 56.3777 46.18 56.7442 46.1386C59.0366 45.8792 60.9741 45.034 62.5031 43.6266C62.831 43.325 63.1396 43.0067 63.4663 42.67C64.1633 41.9521 64.8837 41.2095 65.7938 40.6458C65.8621 40.6033 65.9307 40.5622 66 40.5222C64.9 40.62 63.7347 40.9629 62.3181 41.5982Z" fill="url(#paint2_linear_1550_30)"/>
</g>
<defs>
<linearGradient id="paint0_linear_1550_30" x1="49.1634" y1="19.7656" x2="49.1634" y2="32.2759" gradientUnits="userSpaceOnUse">
<stop stop-color="#F98315"/>
<stop offset="1" stop-color="white"/>
</linearGradient>
<linearGradient id="paint1_linear_1550_30" x1="32.8921" y1="18.2322" x2="33" y2="48" gradientUnits="userSpaceOnUse">
<stop stop-color="#F98315"/>
<stop offset="1" stop-color="white"/>
</linearGradient>
<linearGradient id="paint2_linear_1550_30" x1="24.5" y1="40.5" x2="73.5" y2="54" gradientUnits="userSpaceOnUse">
<stop stop-color="#F98315"/>
<stop offset="1" stop-color="white"/>
</linearGradient>
<clipPath id="clip0_1550_30">
<rect width="66" height="66" fill="white"/>
</clipPath>
</defs>
</svg>
