<svg width="31" height="31" viewBox="0 0 31 31" fill="none" xmlns="http://www.w3.org/2000/svg">
<g clip-path="url(#clip0_1550_57)">
<g opacity="0.5">
<path d="M15.3571 0.5C7.0729 0.5 0.357178 7.21572 0.357178 15.5C0.357178 23.7842 7.0729 30.4999 15.3571 30.4999C23.6414 30.4999 30.3571 23.7842 30.3571 15.5C30.3483 7.21942 23.6378 0.508852 15.3571 0.5ZM15.3571 28.3571C8.25634 28.3571 2.50001 22.6008 2.50001 15.5C2.50001 8.39916 8.25634 2.64283 15.3571 2.64283C22.458 2.64283 28.2143 8.39916 28.2143 15.5C28.2066 22.5976 22.4548 28.3494 15.3571 28.3571Z" fill="white"/>
</g>
<g opacity="0.5">
<path d="M15.3575 5.85693C14.7657 5.85693 14.286 6.33663 14.286 6.92838V14.4284H6.78605C6.19429 14.4284 5.7146 14.9081 5.7146 15.4998C5.7146 16.0916 6.19429 16.5712 6.78605 16.5712H15.3575C15.9492 16.5712 16.4289 16.0915 16.4289 15.4998V6.92838C16.4289 6.33663 15.9492 5.85693 15.3575 5.85693Z" fill="white"/>
</g>
</g>
<defs>
<clipPath id="clip0_1550_57">
<rect width="30" height="30" fill="white" transform="translate(0.357178 0.5)"/>
</clipPath>
</defs>
</svg>
