<svg width="33" height="24" viewBox="0 0 33 24" fill="none" xmlns="http://www.w3.org/2000/svg">
<g clip-path="url(#clip0_1550_194)">
<path d="M30.4799 5.13131C30.3227 4.50228 30.0023 3.92586 29.551 3.46024C29.0998 2.99462 28.5337 2.65629 27.9099 2.47938C25.6269 1.92261 16.5045 1.92261 16.5045 1.92261C16.5045 1.92261 7.38323 1.92261 5.10216 2.53236C4.478 2.70896 3.91151 3.04716 3.45991 3.5128C3.00831 3.97844 2.68761 4.55502 2.5302 5.18429C2.11286 7.49878 1.90876 9.84667 1.92044 12.1985C1.9055 14.5679 2.10962 16.9337 2.5302 19.2656C2.70328 19.8759 3.03097 20.4312 3.48154 20.8777C3.93212 21.3243 4.49033 21.647 5.10216 21.8146C7.38224 22.4243 16.5045 22.4243 16.5045 22.4243C16.5045 22.4243 25.6269 22.4243 27.9069 21.8146C28.5311 21.638 29.0976 21.2998 29.5492 20.8341C30.0008 20.3685 30.3215 19.7919 30.4789 19.1626C30.893 16.8656 31.0971 14.5355 31.0887 12.2015C31.1036 9.83198 30.8995 7.4662 30.4789 5.13431L30.4799 5.13131Z" stroke="#F98315" stroke-width="2.99879" stroke-linecap="round" stroke-linejoin="round"/>
<path d="M13.5217 16.5338L21.1456 12.1986L13.5217 7.8623V16.5338Z" stroke="#F98315" stroke-width="2.99879" stroke-linecap="round" stroke-linejoin="round"/>
</g>
<defs>
<clipPath id="clip0_1550_194">
<rect width="32.17" height="23.4975" fill="white" transform="translate(0.419922 0.423096)"/>
</clipPath>
</defs>
</svg>
