<svg width="19" height="18" viewBox="0 0 19 18" fill="none" xmlns="http://www.w3.org/2000/svg">
<path fill-rule="evenodd" clip-rule="evenodd" d="M8.46146 0.255108C8.64727 0.254817 8.84715 0.254907 9.06285 0.255004L9.41836 0.255108C12.2664 0.255108 12.604 0.26533 13.7286 0.316442C14.7686 0.363998 15.3331 0.537778 15.7091 0.683779C16.2069 0.877115 16.5618 1.10823 16.9349 1.48157C17.3082 1.8549 17.5393 2.21046 17.7331 2.70824C17.8791 3.0838 18.0531 3.64825 18.1005 4.68827C18.1516 5.81272 18.1627 6.1505 18.1627 8.9972C18.1627 11.8439 18.1516 12.1817 18.1005 13.3061C18.0529 14.3461 17.8791 14.9106 17.7331 15.2862C17.5398 15.7839 17.3082 16.1384 16.9349 16.5115C16.5615 16.8848 16.2071 17.1159 15.7091 17.3093C15.3335 17.456 14.7686 17.6293 13.7286 17.6768C12.6042 17.728 12.2664 17.7391 9.41836 17.7391C6.57011 17.7391 6.23255 17.728 5.1081 17.6768C4.06809 17.6288 3.50364 17.4551 3.12741 17.3091C2.62963 17.1157 2.27407 16.8846 1.90073 16.5113C1.52739 16.1379 1.29628 15.7833 1.1025 15.2853C0.956498 14.9097 0.782496 14.3453 0.735162 13.3052C0.68405 12.1808 0.673828 11.843 0.673828 8.99453C0.673828 6.14606 0.68405 5.81005 0.735162 4.6856C0.782718 3.64559 0.956498 3.08114 1.1025 2.70513C1.29583 2.20735 1.52739 1.85179 1.90073 1.47845C2.27407 1.10512 2.62963 0.874003 3.12741 0.680224C3.50341 0.533555 4.06809 0.36022 5.1081 0.312442C6.09211 0.267997 6.47344 0.254664 8.46146 0.252441V0.255108ZM15.112 2.02596C14.4054 2.02596 13.832 2.59863 13.832 3.30553C13.832 4.0122 14.4054 4.58554 15.112 4.58554C15.8187 4.58554 16.3921 4.0122 16.3921 3.30553C16.3921 2.59885 15.8187 2.02551 15.112 2.02551V2.02596ZM3.94043 8.99871C3.94043 5.97364 6.393 3.52099 9.41804 3.52087C12.4432 3.52087 14.8952 5.97357 14.8952 8.99871C14.8952 12.0239 12.4434 14.4754 9.41826 14.4754C6.39312 14.4754 3.94043 12.0239 3.94043 8.99871Z" fill="#0F1624"/>
</svg>
