<svg width="40" height="40" viewBox="0 0 40 40" fill="none" xmlns="http://www.w3.org/2000/svg">
<path fill-rule="evenodd" clip-rule="evenodd" d="M0 20C0 8.95431 8.95431 0 20 0C31.0457 0 40 8.95431 40 20C40 31.0457 31.0457 40 20 40C8.95431 40 0 31.0457 0 20Z" fill="white" fill-opacity="0.7"/>
<path fill-rule="evenodd" clip-rule="evenodd" d="M20 0C8.95431 0 0 8.95431 0 20C0 31.0457 8.95431 40 20 40C31.0457 40 40 31.0457 40 20C40 8.95431 31.0457 0 20 0ZM22.0843 20.8785V31.7596H17.5822V20.8789H15.333V17.1293H17.5822V14.878C17.5822 11.819 18.8523 10 22.4607 10H25.4647V13.7501H23.587C22.1823 13.7501 22.0894 14.2741 22.0894 15.2521L22.0843 17.1288H25.486L25.088 20.8785H22.0843Z" fill="#0F1624"/>
</svg>
