<svg width="24" height="24" viewBox="0 0 24 24" fill="none" xmlns="http://www.w3.org/2000/svg">
<path d="M23.8334 8.82019C23.7764 8.65411 23.5742 8.52494 23.4054 8.52494C22.6743 8.52494 21.9434 8.52494 21.2124 8.52494C21.0436 8.52494 20.8413 8.65411 20.7842 8.82019C20.7284 8.98274 20.6867 9.12779 20.6589 9.26419L19.1941 5.21151C18.9525 4.54323 18.3126 4.09424 17.602 4.09424H6.39814C5.68754 4.09424 5.04778 4.54323 4.80604 5.21163L3.3411 9.26468C3.31331 9.12815 3.27159 8.98293 3.2157 8.82019C3.15866 8.65411 2.9564 8.52494 2.78764 8.52494C2.05666 8.52494 1.32568 8.52494 0.594636 8.52494C0.425878 8.52494 0.223612 8.65411 0.166569 8.82019C-0.0555227 9.46682 -0.0554011 9.83699 0.16663 10.4837C0.223673 10.6498 0.425939 10.7789 0.594697 10.7789C1.32574 10.7789 2.05672 10.7789 2.7877 10.7789C2.78977 10.7789 2.79196 10.7784 2.79408 10.7783L2.761 10.87C2.31384 11.0185 1.99098 11.4395 1.99098 11.9366V15.3303V15.61V19.3653C1.99098 19.6639 2.2329 19.9058 2.53143 19.9058H5.25144C5.54992 19.9058 5.79189 19.6639 5.79189 19.3653V16.7344H18.2082V19.3653C18.2082 19.6639 18.4502 19.9058 18.7487 19.9058H21.4687C21.7672 19.9058 22.0091 19.6639 22.0091 19.3653V15.61V15.3303V11.9366C22.0091 11.4396 21.6864 11.0187 21.2394 10.87L21.2063 10.7783C21.2083 10.7784 21.2104 10.7789 21.2124 10.7789C21.9435 10.7789 22.6744 10.7789 23.4054 10.7789C23.5742 10.7789 23.7764 10.6497 23.8335 10.4836C24.0555 9.83699 24.0554 9.46682 23.8334 8.82019ZM6.60509 6.08309H17.3936L19.1029 10.8121H4.8958L6.60509 6.08309ZM6.906 14.1435H4.63047C4.14226 14.1435 3.74655 13.7478 3.74655 13.2596C3.74655 12.7714 4.1422 12.3757 4.63047 12.3757H6.906C7.39415 12.3757 7.78993 12.7714 7.78993 13.2596C7.78999 13.7478 7.39415 14.1435 6.906 14.1435ZM19.3695 14.1435H17.0939C16.6058 14.1435 16.21 13.7478 16.21 13.2596C16.21 12.7714 16.6058 12.3757 17.0939 12.3757H19.3695C19.8577 12.3757 20.2534 12.7714 20.2534 13.2596C20.2534 13.7478 19.8577 14.1435 19.3695 14.1435Z" fill="black" fill-opacity="0.59"/>
</svg>
