<svg width="40" height="40" viewBox="0 0 40 40" fill="none" xmlns="http://www.w3.org/2000/svg">
<path fill-rule="evenodd" clip-rule="evenodd" d="M0 20C0 8.95431 8.95431 0 20 0C31.0457 0 40 8.95431 40 20C40 31.0457 31.0457 40 20 40C8.95431 40 0 31.0457 0 20Z" fill="white" fill-opacity="0.7"/>
<path fill-rule="evenodd" clip-rule="evenodd" d="M20 0C8.95431 0 0 8.95431 0 20C0 31.0457 8.95431 40 20 40C31.0457 40 40 31.0457 40 20C40 8.95431 31.0457 0 20 0ZM16.0194 9.39794C17.1572 9.34616 17.5207 9.3335 20.4177 9.3335H20.4143C23.3121 9.3335 23.6744 9.34616 24.8122 9.39794C25.9477 9.44994 26.7233 9.62972 27.4033 9.8935C28.1055 10.1657 28.6989 10.5302 29.2922 11.1235C29.8855 11.7164 30.25 12.3115 30.5233 13.0131C30.7856 13.6913 30.9656 14.4664 31.0189 15.602C31.07 16.7398 31.0833 17.1034 31.0833 20.0003C31.0833 22.8972 31.07 23.2599 31.0189 24.3977C30.9656 25.5328 30.7856 26.3081 30.5233 26.9866C30.25 27.6879 29.8855 28.283 29.2922 28.8759C28.6995 29.4693 28.1053 29.8346 27.404 30.107C26.7253 30.3708 25.9493 30.5506 24.8137 30.6026C23.6759 30.6544 23.3135 30.667 20.4163 30.667C17.5196 30.667 17.1563 30.6544 16.0185 30.6026C14.8832 30.5506 14.1078 30.3708 13.4291 30.107C12.728 29.8346 12.1329 29.4693 11.5402 28.8759C10.9471 28.283 10.5827 27.6879 10.31 26.9863C10.0464 26.3081 9.86667 25.533 9.81445 24.3974C9.76289 23.2596 9.75 22.8972 9.75 20.0003C9.75 17.1034 9.76333 16.7396 9.81422 15.6018C9.86533 14.4667 10.0453 13.6913 10.3098 13.0129C10.5831 12.3115 10.9476 11.7164 11.5409 11.1235C12.1338 10.5304 12.7289 10.1659 13.4305 9.8935C14.1087 9.62972 14.8838 9.44994 16.0194 9.39794Z" fill="#0F1624"/>
<path fill-rule="evenodd" clip-rule="evenodd" d="M19.4615 11.2551C19.6473 11.2548 19.8471 11.2549 20.0628 11.255L20.4184 11.2551C23.2664 11.2551 23.604 11.2653 24.7286 11.3164C25.7686 11.364 26.3331 11.5378 26.7091 11.6838C27.2069 11.8771 27.5618 12.1082 27.9349 12.4816C28.3082 12.8549 28.5393 13.2105 28.7331 13.7082C28.8791 14.0838 29.0531 14.6483 29.1005 15.6883C29.1516 16.8127 29.1627 17.1505 29.1627 19.9972C29.1627 22.8439 29.1516 23.1817 29.1005 24.3061C29.0529 25.3461 28.8791 25.9106 28.7331 26.2862C28.5398 26.7839 28.3082 27.1384 27.9349 27.5115C27.5615 27.8848 27.2071 28.1159 26.7091 28.3093C26.3335 28.456 25.7686 28.6293 24.7286 28.6768C23.6042 28.728 23.2664 28.7391 20.4184 28.7391C17.5701 28.7391 17.2326 28.728 16.1081 28.6768C15.0681 28.6288 14.5036 28.4551 14.1274 28.3091C13.6296 28.1157 13.2741 27.8846 12.9007 27.5113C12.5274 27.1379 12.2963 26.7833 12.1025 26.2853C11.9565 25.9097 11.7825 25.3453 11.7352 24.3052C11.6841 23.1808 11.6738 22.843 11.6738 19.9945C11.6738 17.1461 11.6841 16.8101 11.7352 15.6856C11.7827 14.6456 11.9565 14.0811 12.1025 13.7051C12.2958 13.2074 12.5274 12.8518 12.9007 12.4785C13.2741 12.1051 13.6296 11.874 14.1274 11.6802C14.5034 11.5336 15.0681 11.3602 16.1081 11.3124C17.0921 11.268 17.4734 11.2547 19.4615 11.2524V11.2551ZM26.112 13.026C25.4054 13.026 24.832 13.5986 24.832 14.3055C24.832 15.0122 25.4054 15.5855 26.112 15.5855C26.8187 15.5855 27.3921 15.0122 27.3921 14.3055C27.3921 13.5989 26.8187 13.0255 26.112 13.0255V13.026ZM14.9404 19.9987C14.9404 16.9736 17.393 14.521 20.418 14.5209C23.4432 14.5209 25.8952 16.9736 25.8952 19.9987C25.8952 23.0239 23.4434 25.4754 20.4183 25.4754C17.3931 25.4754 14.9404 23.0239 14.9404 19.9987Z" fill="#0F1624"/>
<path fill-rule="evenodd" clip-rule="evenodd" d="M20.4179 16.4441C22.3815 16.4441 23.9735 18.0359 23.9735 19.9997C23.9735 21.9633 22.3815 23.5553 20.4179 23.5553C18.4541 23.5553 16.8623 21.9633 16.8623 19.9997C16.8623 18.0359 18.4541 16.4441 20.4179 16.4441V16.4441Z" fill="#0F1624"/>
</svg>
