<svg width="40" height="40" viewBox="0 0 40 40" fill="none" xmlns="http://www.w3.org/2000/svg">
<path fill-rule="evenodd" clip-rule="evenodd" d="M0 20C0 8.95431 8.95431 0 20 0C31.0457 0 40 8.95431 40 20C40 31.0457 31.0457 40 20 40C8.95431 40 0 31.0457 0 20Z" fill="white" fill-opacity="0.7"/>
<path fill-rule="evenodd" clip-rule="evenodd" d="M20 0C8.95431 0 0 8.95431 0 20C0 31.0457 8.95431 40 20 40C31.0457 40 40 31.0457 40 20C40 8.95431 31.0457 0 20 0ZM20.277 16.9478L20.235 16.2558C20.1091 14.4621 21.2143 12.8238 22.963 12.1882C23.6065 11.9623 24.6977 11.934 25.4111 12.1317C25.6909 12.2165 26.2225 12.4989 26.6002 12.7532L27.2857 13.2192L28.0412 12.9791C28.4609 12.852 29.0204 12.6402 29.2723 12.4989C29.5101 12.3718 29.7199 12.3012 29.7199 12.3436C29.7199 12.5837 29.2023 13.4028 28.7686 13.8548C28.1811 14.4903 28.3489 14.5468 29.5381 14.1231C30.2515 13.883 30.2655 13.883 30.1256 14.1514C30.0417 14.2926 29.608 14.7869 29.1464 15.2389C28.3629 16.0157 28.321 16.1004 28.321 16.7501C28.321 17.7528 27.8453 19.8431 27.3697 20.9871C26.4883 23.1338 24.5997 25.3512 22.7111 26.467C20.0531 28.0347 16.5138 28.4301 13.534 27.5121C12.5407 27.2014 10.834 26.4105 10.834 26.2692C10.834 26.2269 11.3516 26.1704 11.9811 26.1562C13.2962 26.128 14.6112 25.7608 15.7303 25.1111L16.4858 24.6592L15.6184 24.3626C14.3873 23.9389 13.2822 22.9644 13.0024 22.0463C12.9184 21.7498 12.9464 21.7356 13.7298 21.7356L14.5412 21.7215L13.8557 21.3967C13.0443 20.9871 12.3029 20.295 11.9392 19.5889C11.6734 19.0804 11.3376 17.7952 11.4355 17.6963C11.4635 17.654 11.7573 17.7387 12.093 17.8517C13.0583 18.2048 13.1842 18.12 12.6247 17.5269C11.5754 16.4535 11.2537 14.8575 11.7573 13.3463L11.9951 12.6684L12.9184 13.5864C14.807 15.4366 17.0314 16.5382 19.5775 16.8631L20.277 16.9478Z" fill="#0F1624"/>
</svg>
