<svg width="40" height="40" viewBox="0 0 40 40" fill="none" xmlns="http://www.w3.org/2000/svg">
<path fill-rule="evenodd" clip-rule="evenodd" d="M0 20C0 8.95431 8.95431 0 20 0C31.0457 0 40 8.95431 40 20C40 31.0457 31.0457 40 20 40C8.95431 40 0 31.0457 0 20Z" fill="white" fill-opacity="0.7"/>
<path fill-rule="evenodd" clip-rule="evenodd" d="M20 0C8.95431 0 0 8.95431 0 20C0 31.0457 8.95431 40 20 40C31.0457 40 40 31.0457 40 20C40 8.95431 31.0457 0 20 0ZM28.3353 13.125C29.2533 13.3769 29.9762 14.1191 30.2215 15.0616C30.6673 16.7698 30.6673 20.3339 30.6673 20.3339C30.6673 20.3339 30.6673 23.8979 30.2215 25.6062C29.9762 26.5487 29.2533 27.2909 28.3353 27.5429C26.6718 28.0006 20.0007 28.0006 20.0007 28.0006C20.0007 28.0006 13.3295 28.0006 11.6659 27.5429C10.7479 27.2909 10.025 26.5487 9.77968 25.6062C9.33398 23.8979 9.33398 20.3339 9.33398 20.3339C9.33398 20.3339 9.33398 16.7698 9.77968 15.0616C10.025 14.1191 10.7479 13.3769 11.6659 13.125C13.3295 12.6672 20.0007 12.6672 20.0007 12.6672C20.0007 12.6672 26.6718 12.6672 28.3353 13.125Z" fill="#0F1624"/>
<path fill-rule="evenodd" clip-rule="evenodd" d="M18 23.9994V17.3328L23.3333 20.6662L18 23.9994Z" fill="#0F1624"/>
</svg>
